# xmcd
#
# Track frame offsets: 
#        150
#        20815
#        40565
#        59410
#        82532
#        104365
#        124720
#        147212
#        168445
#        188715
#        211010
#        232975
#
# Disc length: 3439 seconds
#
# Revision: 2
# Processed by: cddbd v1.5.1PL2 Copyright (c) Steve Scherf et al.
# Submitted via: ExactAudioCopy v0.95b4
#
DISCID=910d6d0c
DTITLE=The Jeff Healey Band - Feel This
DYEAR=1992
DGENRE=Blues
TTITLE0=Cruel Little Number
TTITLE1=Leave The Light On
TTITLE2=Baby's Lookin' Hot
TTITLE3=Lost In Your Eyes
TTITLE4=House That Love Built
TTITLE5=Evil And Here To Stay
TTITLE6=My Kinda Lover
TTITLE7=It Could All Get Blown Away
TTITLE8=You're Coming Home
TTITLE9=If You Can't Feel Anything Else
TTITLE10=Heart of An Angel
TTITLE11=Dreams of Love
EXTD=
EXTT0=
EXTT1=
EXTT2=
EXTT3=
EXTT4=
EXTT5=
EXTT6=
EXTT7=
EXTT8=
EXTT9=
EXTT10=
EXTT11=
PLAYORDER=
